<?xml version="1.0" encoding="iso-8859-1"?>
<!-- Generator: Adobe Illustrator 18.0.0, SVG Export Plug-In . SVG Version: 6.00 Build 0)  -->
<!DOCTYPE svg PUBLIC "-//W3C//DTD SVG 1.1//EN" "http://www.w3.org/Graphics/SVG/1.1/DTD/svg11.dtd">
<svg version="1.1" id="Capa_1" xmlns="http://www.w3.org/2000/svg" xmlns:xlink="http://www.w3.org/1999/xlink" x="0px" y="0px"
	 viewBox="0 0 489.589 489.589" style="enable-background:new 0 0 489.589 489.589;" xml:space="preserve">
<path id="XMLID_160_" d="M407.231,239.82c0-22.456-15.188-41.194-35.797-46.996c2.346-5.718,3.684-11.973,3.684-18.534
	c0-27.085-21.953-49.042-49.045-49.042c-15.184,0-28.591,7.048-37.573,17.881c-7.065-8.492-16.755-14.684-28.009-16.905
	c-5.602-5.302-11.627-11.915-17.179-19.279c5.78-8.625,21.953-30.607,40.995-40.272c-3.755,5.435-6.537,11.178-7.506,17.258
	c-3.489,18.485,16.385,34.683,32.079,33.044c17.757-1.073,30.812-18.372,28.133-35.132c-1.671-12.659-13.017-24.398-26.494-29.235
	c4.861-3.78,10.358-7.656,17.017-11.644c5.215-3.206,10.551-5.939,15.924-8.026c-4.579,18.136,1.959,36.662,18.197,35.244
	c32.362-0.291,27.272-43.116,4.828-45.678c-4.861-0.495-8.966-0.503-12.754-0.17c2.466-4.184,5.477-8.226,9.673-11.644
	c9.984-7.082,17.72-5.697,17.491-6.184c1.252,0,2.254-1.011,2.254-2.254c0-1.239-1.002-2.253-2.254-2.253
	c-17.088,1.754-28.237,11.801-34.072,23.657c-7.397,1.843-14.142,5.224-23.408,10.251c-7.697,4.433-16.276,10.089-24.012,16.605
	c-4.138-0.188-8.296,0.133-12.26,1.602c-19.063,6.009-41.822,29.039-52.215,42.084c-11.184-20.134-10.541-33.827-3.922-47.813
	c1.754-3.704,0.353-8.118-3.211-10.142l-22.001-12.494c-2.049-1.163-4.513-1.341-6.708-0.485c-2.194,0.856-3.885,2.657-4.606,4.9
	c-11.276,35.065-5.769,66.984,34.972,102.217c-7.348,3.601-13.67,8.887-18.393,15.486c-8.878-12.446-23.358-20.622-39.827-20.622
	c-27.092,0-49.045,21.957-49.045,49.042c0,6.034,1.234,11.752,3.243,17.087c-24.241,2.986-43.071,23.405-43.071,48.443
	c0,24.569,18.128,44.738,41.695,48.306c-3.469,6.729-5.619,14.252-5.619,22.344c0,26.503,21.051,47.953,47.333,48.868
	c-2.396,5.797-3.751,12.118-3.751,18.776c0,27.085,21.949,49.046,49.042,49.046c0.74,0,1.427-0.187,2.15-0.221
	c-1.269,4.35-2.15,8.85-2.15,13.607c0,27.085,21.949,49.042,49.042,49.042c27.094,0,49.047-21.957,49.047-49.042
	c0-9.88-2.979-19.05-8.018-26.76c21.703-5.061,37.893-24.415,37.893-47.649c0-9.486-2.82-18.269-7.469-25.771
	c19.57-6.429,33.805-24.647,33.805-46.385c0-1.979-0.354-3.859-0.582-5.776C388.717,284.953,407.231,264.651,407.231,239.82z
	 M365.178,29.752c14.992,1.4,20.153,30.503-4.033,32.202c-11.345,1.119-16.453-14.912-11.311-31.004
	C354.942,29.638,360.051,28.943,365.178,29.752z M308.157,106.734c-15.961,2.299-35.375-16.788-8.615-44.471
	C326.176,62.086,338.772,104.515,308.157,106.734z"/>
<g>
</g>
<g>
</g>
<g>
</g>
<g>
</g>
<g>
</g>
<g>
</g>
<g>
</g>
<g>
</g>
<g>
</g>
<g>
</g>
<g>
</g>
<g>
</g>
<g>
</g>
<g>
</g>
<g>
</g>
</svg>
